<svg width="195" height="47" viewBox="0 0 195 47" fill="none" xmlns="http://www.w3.org/2000/svg">
<path d="M19.4489 8.40259C13.678 8.40259 9.92784 10.7146 7.65224 15.1019H7.52481V12.3712C7.52481 10.4051 5.92279 8.8213 3.95667 8.8213C1.99056 8.8213 0.406738 10.4051 0.406738 12.3712V42.573C0.406738 44.5391 1.99056 46.1411 3.95667 46.1411H4.30256C6.26868 46.1411 7.8707 44.5391 7.8707 42.573V24.5866C7.8707 18.7065 11.2386 14.7925 16.8639 14.7925C22.3253 14.7925 24.9468 17.9601 24.9468 23.6218V42.573C24.9468 44.5391 26.5306 46.1411 28.4967 46.1411H28.8426C30.8087 46.1411 32.3925 44.5391 32.3925 42.573V22.22C32.3925 13.6274 27.6957 8.40259 19.4489 8.40259Z" fill="white"/>
<path d="M55.4216 8.32971C44.9902 8.32971 38.1816 15.9393 38.1816 27.6086C38.1816 39.296 44.9174 46.578 55.731 46.578C62.4304 46.578 67.9647 43.6106 70.4587 38.9866C71.3872 37.2935 70.1128 35.2 68.1831 35.2H66.2898C65.3432 35.2 64.524 35.7461 64.0324 36.5653C62.5943 39.0412 59.5723 40.534 55.8767 40.534C49.7599 40.534 45.7002 36.2741 45.7002 29.8114V29.3744H69.5485C70.9684 29.3744 72.1336 28.2093 72.1336 26.7894V26.753C72.1336 15.4478 65.6709 8.32971 55.4216 8.32971ZM45.7366 24.0768C46.1553 18.3423 50.0329 14.4101 55.4034 14.4101C60.8284 14.4101 64.5058 18.2695 64.6696 24.0768H45.7366Z" fill="white"/>
<path d="M106.85 33.5979H104.866C103.792 33.5979 102.863 34.2715 102.463 35.2728C101.17 38.5679 98.2211 40.3337 94.034 40.3337C88.0446 40.3337 84.0031 35.5094 84.0031 27.4811C84.0031 19.6349 87.99 14.6286 93.9975 14.6286C98.3303 14.6286 101.225 16.7767 102.408 19.8351C102.809 20.8546 103.737 21.5646 104.848 21.5646H106.832C108.561 21.5646 109.854 19.8715 109.29 18.2331C107.378 12.6078 101.917 8.32971 93.9247 8.32971C83.3842 8.32971 76.4299 15.8665 76.4299 27.4811C76.4299 39.296 83.4024 46.578 93.9975 46.578C101.589 46.578 107.232 42.8642 109.308 36.984C109.89 35.3274 108.616 33.5979 106.85 33.5979Z" fill="white"/>
<path d="M129.206 40.2791C129.078 40.2609 128.932 40.2427 128.805 40.2427C126.347 39.9514 125.2 38.4222 125.2 35.5459V14.7014H129.406C131.044 14.7014 132.355 13.3724 132.355 11.7522C132.355 10.132 131.044 8.82124 129.406 8.82124H125.2V4.14261C125.2 3.12314 124.782 2.1947 124.108 1.52112C123.435 0.847543 122.524 0.428833 121.487 0.428833C119.448 0.428833 117.791 2.10367 117.791 4.14261V8.82124H115.57C113.95 8.82124 112.621 10.132 112.621 11.7522C112.621 13.3724 113.95 14.7014 115.57 14.7014H117.791V36.3105C117.791 43.5196 120.667 46.3777 128.131 46.3777C128.15 46.3777 128.168 46.3777 128.168 46.3777C129.023 46.3777 129.806 46.1228 130.462 45.6677C130.48 45.6677 130.498 45.6495 130.498 45.6495C131.263 45.1034 131.772 44.2113 131.772 43.2101C131.772 41.7173 130.662 40.4611 129.206 40.2791Z" fill="white"/>
<path d="M153.418 8.32971C147.592 8.32971 142.786 10.6963 140.329 14.3555C139.928 14.9745 139.728 15.648 139.728 16.3034C139.728 18.1239 141.184 19.8169 143.241 19.8169C144.443 19.8169 145.59 19.1798 146.154 18.1239C147.356 15.8665 149.923 14.4829 153.218 14.4829C158.206 14.4829 161.046 16.8313 161.046 21.0913V21.5464C161.046 22.9117 159.99 24.0404 158.624 24.1133L150.978 24.5502C141.767 25.1327 136.724 28.9193 136.724 35.4548C136.724 42.1178 141.876 46.5051 149.34 46.5051C154.419 46.5051 159.061 43.9747 161.119 39.915H161.282V42.5729C161.282 43.556 161.683 44.448 162.32 45.1034C162.975 45.7405 163.867 46.141 164.851 46.141C166.817 46.141 168.4 44.539 168.4 42.5729V20.5451C168.4 13.154 162.52 8.32971 153.418 8.32971ZM161.046 32.1234C161.046 37.0204 156.859 40.5704 151.324 40.5704C147.028 40.5704 144.243 38.5132 144.243 35.3092C144.243 32.0141 146.901 30.1208 151.98 29.8114L161.046 29.1924V32.1234Z" fill="white"/>
<path d="M192.158 8.43896C187.752 8.43896 184.33 10.9512 183.146 15.1019H183.019V12.3712C183.019 10.4051 181.417 8.82127 179.469 8.82127C177.503 8.82127 175.901 10.4051 175.901 12.3712V42.4091C175.901 43.4286 176.32 44.3752 176.993 45.0488C177.667 45.7224 178.595 46.1411 179.633 46.1411C181.69 46.1411 183.365 44.4662 183.365 42.4091V23.8766C183.365 18.6154 186.46 15.2111 191.375 15.2111C191.575 15.2111 191.794 15.2111 191.994 15.2293C193.523 15.284 194.761 14.0278 194.761 12.4986V11.0605C194.761 9.62228 193.596 8.43896 192.158 8.43896Z" fill="white"/>
</svg>
