<svg width="251" height="94" viewBox="0 0 251 94" fill="none" xmlns="http://www.w3.org/2000/svg">
<path d="M33.3808 35.4456H26.9968L17.4928 1.84555H23.3008L30.3568 28.1016L37.9888 1.84555H43.0768L50.6608 28.1016L57.7168 1.84555H63.5248L54.0208 35.4456H47.6368L40.5328 10.9176L33.3808 35.4456ZM87.8346 25.6536H68.7306C69.1146 27.4456 69.9786 28.8376 71.3226 29.8296C72.6986 30.8216 74.3946 31.3176 76.4106 31.3176C79.1306 31.3176 81.1946 30.3256 82.6026 28.3416L86.8746 30.8376C84.5386 34.3256 81.0346 36.0696 76.3626 36.0696C72.4906 36.0696 69.3386 34.8856 66.9066 32.5176C64.5066 30.1176 63.3066 27.0936 63.3066 23.4456C63.3066 19.8936 64.4906 16.9016 66.8586 14.4696C69.1946 12.0376 72.2346 10.8216 75.9786 10.8216C79.4666 10.8216 82.3466 12.0536 84.6186 14.5176C86.8906 16.9816 88.0266 19.9736 88.0266 23.4936C88.0266 24.1336 87.9626 24.8536 87.8346 25.6536ZM68.6826 21.4296H82.7946C82.4426 19.5416 81.6426 18.0856 80.3946 17.0616C79.1786 16.0376 77.6906 15.5256 75.9306 15.5256C74.0106 15.5256 72.4106 16.0536 71.1306 17.1096C69.8506 18.1656 69.0346 19.6056 68.6826 21.4296ZM97.7721 35.4456H92.5881V0.405556H97.7721V35.4456ZM115.119 36.0696C111.503 36.0696 108.479 34.8536 106.047 32.4216C103.647 29.9576 102.447 26.9656 102.447 23.4456C102.447 19.8616 103.647 16.8696 106.047 14.4696C108.479 12.0376 111.503 10.8216 115.119 10.8216C117.455 10.8216 119.583 11.3816 121.503 12.5016C123.423 13.6216 124.863 15.1256 125.823 17.0136L121.359 19.6056C120.815 18.4536 119.983 17.5576 118.863 16.9176C117.775 16.2456 116.511 15.9096 115.071 15.9096C112.959 15.9096 111.183 16.6296 109.743 18.0696C108.335 19.5416 107.631 21.3336 107.631 23.4456C107.631 25.5576 108.335 27.3496 109.743 28.8216C111.183 30.2616 112.959 30.9816 115.071 30.9816C116.479 30.9816 117.743 30.6616 118.863 30.0216C120.015 29.3496 120.879 28.4376 121.455 27.2856L125.919 29.8296C124.895 31.7496 123.407 33.2696 121.455 34.3896C119.535 35.5096 117.423 36.0696 115.119 36.0696ZM149.595 32.4216C147.163 34.8536 144.171 36.0696 140.619 36.0696C137.067 36.0696 134.075 34.8536 131.643 32.4216C129.179 29.9576 127.947 26.9656 127.947 23.4456C127.947 19.9256 129.179 16.9336 131.643 14.4696C134.075 12.0376 137.067 10.8216 140.619 10.8216C144.171 10.8216 147.163 12.0376 149.595 14.4696C152.059 16.9336 153.291 19.9256 153.291 23.4456C153.291 26.9656 152.059 29.9576 149.595 32.4216ZM133.131 23.4456C133.131 25.6216 133.851 27.4296 135.291 28.8696C136.731 30.3096 138.507 31.0296 140.619 31.0296C142.731 31.0296 144.507 30.3096 145.947 28.8696C147.387 27.4296 148.107 25.6216 148.107 23.4456C148.107 21.2696 147.387 19.4616 145.947 18.0216C144.507 16.5816 142.731 15.8616 140.619 15.8616C138.507 15.8616 136.731 16.5816 135.291 18.0216C133.851 19.4616 133.131 21.2696 133.131 23.4456ZM184.187 10.8216C186.907 10.8216 189.099 11.7016 190.763 13.4616C192.427 15.2216 193.259 17.5896 193.259 20.5656V35.4456H188.075V20.9016C188.075 19.2696 187.659 17.9896 186.827 17.0616C185.995 16.1336 184.859 15.6696 183.419 15.6696C181.787 15.6696 180.507 16.2136 179.579 17.3016C178.651 18.3576 178.187 19.9256 178.187 22.0056V35.4456H173.003V20.9016C173.003 19.2376 172.603 17.9576 171.803 17.0616C171.035 16.1336 169.931 15.6696 168.491 15.6696C166.891 15.6696 165.595 16.2136 164.603 17.3016C163.643 18.3896 163.163 19.9576 163.163 22.0056V35.4456H157.979V11.4456H163.163V14.3256C164.699 11.9896 166.987 10.8216 170.027 10.8216C173.099 10.8216 175.371 12.0856 176.843 14.6136C178.411 12.0856 180.859 10.8216 184.187 10.8216ZM221.991 25.6536H202.887C203.271 27.4456 204.135 28.8376 205.479 29.8296C206.855 30.8216 208.551 31.3176 210.567 31.3176C213.287 31.3176 215.351 30.3256 216.759 28.3416L221.031 30.8376C218.695 34.3256 215.191 36.0696 210.519 36.0696C206.647 36.0696 203.495 34.8856 201.063 32.5176C198.663 30.1176 197.463 27.0936 197.463 23.4456C197.463 19.8936 198.647 16.9016 201.015 14.4696C203.351 12.0376 206.391 10.8216 210.135 10.8216C213.623 10.8216 216.503 12.0536 218.775 14.5176C221.047 16.9816 222.183 19.9736 222.183 23.4936C222.183 24.1336 222.119 24.8536 221.991 25.6536ZM202.839 21.4296H216.951C216.599 19.5416 215.799 18.0856 214.551 17.0616C213.335 16.0376 211.847 15.5256 210.087 15.5256C208.167 15.5256 206.567 16.0536 205.287 17.1096C204.007 18.1656 203.191 19.6056 202.839 21.4296ZM16.2848 68.4456V73.4376H10.3328V84.9576C10.3328 85.9496 10.5568 86.6696 11.0048 87.1176C11.4528 87.5336 12.1088 87.7736 12.9728 87.8376C13.8688 87.8696 14.9728 87.8536 16.2848 87.7896V92.4456C12.3168 92.9256 9.46877 92.5896 7.74077 91.4376C6.01277 90.2536 5.14877 88.0936 5.14877 84.9576V73.4376H0.732774V68.4456H5.14877V63.2616L10.3328 61.7256V68.4456H16.2848ZM40.3062 89.4216C37.8742 91.8536 34.8822 93.0696 31.3302 93.0696C27.7782 93.0696 24.7861 91.8536 22.3541 89.4216C19.8901 86.9576 18.6581 83.9656 18.6581 80.4456C18.6581 76.9256 19.8901 73.9336 22.3541 71.4696C24.7861 69.0376 27.7782 67.8216 31.3302 67.8216C34.8822 67.8216 37.8742 69.0376 40.3062 71.4696C42.7702 73.9336 44.0022 76.9256 44.0022 80.4456C44.0022 83.9656 42.7702 86.9576 40.3062 89.4216ZM23.8421 80.4456C23.8421 82.6216 24.5621 84.4296 26.0021 85.8696C27.4421 87.3096 29.2182 88.0296 31.3302 88.0296C33.4422 88.0296 35.2182 87.3096 36.6582 85.8696C38.0982 84.4296 38.8182 82.6216 38.8182 80.4456C38.8182 78.2696 38.0982 76.4616 36.6582 75.0216C35.2182 73.5816 33.4422 72.8616 31.3302 72.8616C29.2182 72.8616 27.4421 73.5816 26.0021 75.0216C24.5621 76.4616 23.8421 78.2696 23.8421 80.4456ZM80.9937 89.4216C78.5617 91.8536 75.5697 93.0696 72.0177 93.0696C68.4657 93.0696 65.4736 91.8536 63.0416 89.4216C60.5776 86.9576 59.3456 83.9656 59.3456 80.4456C59.3456 76.9256 60.5776 73.9336 63.0416 71.4696C65.4736 69.0376 68.4657 67.8216 72.0177 67.8216C75.5697 67.8216 78.5617 69.0376 80.9937 71.4696C83.4577 73.9336 84.6897 76.9256 84.6897 80.4456C84.6897 83.9656 83.4577 86.9576 80.9937 89.4216ZM64.5296 80.4456C64.5296 82.6216 65.2496 84.4296 66.6896 85.8696C68.1296 87.3096 69.9057 88.0296 72.0177 88.0296C74.1297 88.0296 75.9057 87.3096 77.3457 85.8696C78.7857 84.4296 79.5057 82.6216 79.5057 80.4456C79.5057 78.2696 78.7857 76.4616 77.3457 75.0216C75.9057 73.5816 74.1297 72.8616 72.0177 72.8616C69.9057 72.8616 68.1296 73.5816 66.6896 75.0216C65.2496 76.4616 64.5296 78.2696 64.5296 80.4456ZM105.553 81.3096V68.4456H110.737V92.4456H105.553V89.3736C103.953 91.8376 101.473 93.0696 98.1131 93.0696C95.3291 93.0696 93.0891 92.1896 91.3931 90.4296C89.7291 88.6376 88.8971 86.2216 88.8971 83.1816V68.4456H94.0812V82.6536C94.0812 84.4456 94.5612 85.8216 95.5212 86.7816C96.4812 87.7416 97.7931 88.2216 99.4571 88.2216C101.345 88.2216 102.833 87.6456 103.921 86.4936C105.009 85.3096 105.553 83.5816 105.553 81.3096ZM121.983 68.4456V72.4776C123.295 69.5016 125.759 68.0136 129.375 68.0136V73.6296C127.423 73.5016 125.695 73.9816 124.191 75.0696C122.719 76.1256 121.983 77.8856 121.983 80.3496V92.4456H116.799V68.4456H121.983ZM149.861 75.0696C149.861 75.8056 150.245 76.4136 151.013 76.8936C151.781 77.3416 152.901 77.7736 154.373 78.1896C155.493 78.4456 156.469 78.7176 157.301 79.0056C158.133 79.2936 159.013 79.7256 159.941 80.3016C160.869 80.8456 161.573 81.5816 162.053 82.5096C162.565 83.4056 162.805 84.4616 162.773 85.6776C162.773 87.9816 161.877 89.7896 160.085 91.1016C158.293 92.4136 156.069 93.0696 153.413 93.0696C151.045 93.0696 149.013 92.5736 147.317 91.5816C145.621 90.5896 144.389 89.2136 143.621 87.4536L148.085 84.8616C148.885 87.1656 150.661 88.3176 153.413 88.3176C156.133 88.3176 157.493 87.4216 157.493 85.6296C157.493 84.3176 155.973 83.2936 152.933 82.5576C151.781 82.2696 150.805 81.9816 150.005 81.6936C149.237 81.4056 148.373 80.9896 147.413 80.4456C146.485 79.9016 145.765 79.1816 145.253 78.2856C144.773 77.3896 144.549 76.3496 144.581 75.1656C144.581 72.9576 145.413 71.1816 147.077 69.8376C148.773 68.4936 150.869 67.8216 153.365 67.8216C155.349 67.8216 157.109 68.2696 158.645 69.1656C160.213 70.0296 161.413 71.2456 162.245 72.8136L157.877 75.2616C157.077 73.4376 155.573 72.5256 153.365 72.5256C152.341 72.5256 151.493 72.7496 150.821 73.1976C150.181 73.6456 149.861 74.2696 149.861 75.0696ZM179.785 68.4456V73.4376H173.833V84.9576C173.833 85.9496 174.057 86.6696 174.505 87.1176C174.953 87.5336 175.609 87.7736 176.473 87.8376C177.369 87.8696 178.473 87.8536 179.785 87.7896V92.4456C175.817 92.9256 172.969 92.5896 171.241 91.4376C169.513 90.2536 168.649 88.0936 168.649 84.9576V73.4376H164.233V68.4456H168.649V63.2616L173.833 61.7256V68.4456H179.785ZM203.806 89.4216C201.374 91.8536 198.382 93.0696 194.83 93.0696C191.278 93.0696 188.286 91.8536 185.854 89.4216C183.39 86.9576 182.158 83.9656 182.158 80.4456C182.158 76.9256 183.39 73.9336 185.854 71.4696C188.286 69.0376 191.278 67.8216 194.83 67.8216C198.382 67.8216 201.374 69.0376 203.806 71.4696C206.27 73.9336 207.502 76.9256 207.502 80.4456C207.502 83.9656 206.27 86.9576 203.806 89.4216ZM187.342 80.4456C187.342 82.6216 188.062 84.4296 189.502 85.8696C190.942 87.3096 192.718 88.0296 194.83 88.0296C196.942 88.0296 198.718 87.3096 200.158 85.8696C201.598 84.4296 202.318 82.6216 202.318 80.4456C202.318 78.2696 201.598 76.4616 200.158 75.0216C198.718 73.5816 196.942 72.8616 194.83 72.8616C192.718 72.8616 190.942 73.5816 189.502 75.0216C188.062 76.4616 187.342 78.2696 187.342 80.4456ZM217.374 68.4456V72.4776C218.686 69.5016 221.15 68.0136 224.766 68.0136V73.6296C222.814 73.5016 221.086 73.9816 219.582 75.0696C218.11 76.1256 217.374 77.8856 217.374 80.3496V92.4456H212.19V68.4456H217.374ZM250.655 82.6536H231.551C231.935 84.4456 232.799 85.8376 234.143 86.8296C235.519 87.8216 237.215 88.3176 239.231 88.3176C241.951 88.3176 244.015 87.3256 245.423 85.3416L249.695 87.8376C247.359 91.3256 243.855 93.0696 239.183 93.0696C235.311 93.0696 232.159 91.8856 229.727 89.5176C227.327 87.1176 226.127 84.0936 226.127 80.4456C226.127 76.8936 227.311 73.9016 229.679 71.4696C232.015 69.0376 235.055 67.8216 238.799 67.8216C242.287 67.8216 245.167 69.0536 247.439 71.5176C249.711 73.9816 250.847 76.9736 250.847 80.4936C250.847 81.1336 250.783 81.8536 250.655 82.6536ZM231.503 78.4296H245.615C245.263 76.5416 244.463 75.0856 243.215 74.0616C241.999 73.0376 240.511 72.5256 238.751 72.5256C236.831 72.5256 235.231 73.0536 233.951 74.1096C232.671 75.1656 231.855 76.6056 231.503 78.4296Z" fill="white"/>
</svg>
