<svg width="14" height="8" viewBox="0 0 14 8" fill="none" xmlns="http://www.w3.org/2000/svg">
<path d="M11.769 0.448692C11.9547 0.284416 12.1991 0.193151 12.4532 0.202277C12.7074 0.202277 12.942 0.293542 13.1277 0.466945C13.3036 0.631221 13.4111 0.859383 13.4111 1.09667C13.4111 1.33396 13.3232 1.56212 13.1472 1.73552L7.61489 6.9011C7.52692 6.98324 7.4194 7.04713 7.30211 7.09276C7.18482 7.13839 7.05775 7.16577 6.93068 7.16577C6.80361 7.16577 6.67655 7.13839 6.54948 7.09276C6.43219 7.04713 6.32467 6.98324 6.2367 6.9011L0.704366 1.73552C0.616396 1.65339 0.5382 1.55299 0.489328 1.44348C0.440456 1.32483 0.411133 1.20619 0.411133 1.08755C0.411133 0.968901 0.430681 0.84113 0.479554 0.731613C0.528426 0.622095 0.606621 0.521704 0.694591 0.430439C0.782561 0.348301 0.899854 0.284416 1.01715 0.238784C1.13444 0.184025 1.26151 0.165772 1.39835 0.165772C1.52542 0.165772 1.65249 0.193151 1.76978 0.238784C1.88707 0.284416 1.99459 0.357428 2.09234 0.448692L6.93068 4.96629L7.8397 4.10841L11.769 0.448692Z" fill="#7C7C7C"/>
</svg>
