<svg width="25" height="25" viewBox="0 0 25 25" fill="none" xmlns="http://www.w3.org/2000/svg">
<path d="M4.74709 11.1167L12.5712 18.9408L20.3953 11.1167C21.087 10.425 21.4757 9.48679 21.4757 8.50851C21.4757 7.53023 21.087 6.59202 20.3953 5.90027C20.0528 5.55775 19.6461 5.28605 19.1986 5.10068C18.7511 4.91531 18.2714 4.8199 17.787 4.8199C16.8088 4.8199 15.8706 5.20852 15.1788 5.90027L12.5712 8.50789L9.96356 5.9015C9.27005 5.21903 8.33496 4.83825 7.36198 4.8421C6.38899 4.84595 5.45694 5.23411 4.76885 5.92204C4.08076 6.60997 3.69237 7.54193 3.6883 8.51491C3.68422 9.4879 4.06478 10.4231 4.74709 11.1167ZM11.702 4.16063L12.5712 5.02983L13.4404 4.16063C14.0103 3.58571 14.6881 3.12901 15.435 2.81677C16.1819 2.50452 16.9831 2.34288 17.7926 2.3411C18.6021 2.33933 19.404 2.49747 20.1523 2.80644C20.9005 3.11541 21.5804 3.56913 22.1528 4.14155C22.7252 4.71397 23.1789 5.39381 23.4879 6.14205C23.7969 6.89029 23.955 7.69218 23.9532 8.5017C23.9515 9.31122 23.7898 10.1124 23.4776 10.8593C23.1653 11.6062 22.7086 12.284 22.1337 12.8539L13.4416 21.5472C13.3274 21.6615 13.1918 21.7522 13.0426 21.8141C12.8933 21.876 12.7334 21.9078 12.5718 21.9078C12.4102 21.9078 12.2503 21.876 12.101 21.8141C11.9517 21.7522 11.8162 21.6615 11.702 21.5472L3.00867 12.8552C2.42593 12.2871 1.96179 11.609 1.64318 10.8601C1.32456 10.1113 1.15781 9.30661 1.15259 8.49281C1.14738 7.67902 1.30381 6.87229 1.6128 6.11942C1.9218 5.36655 2.37721 4.68253 2.95262 4.10704C3.52803 3.53155 4.21198 3.07604 4.96481 2.76694C5.71763 2.45784 6.52434 2.3013 7.33814 2.3064C8.15193 2.31149 8.95662 2.47813 9.70551 2.79664C10.4544 3.11515 11.1326 3.5792 11.7007 4.16186L11.702 4.16063Z" fill="#7C7C7C"/>
</svg>
