<svg width="17" height="17" viewBox="0 0 17 17" fill="none" xmlns="http://www.w3.org/2000/svg">
<path d="M16.1761 14.593L16.1752 14.5921L11.3028 9.89731L11.3026 9.89708L10.1983 8.84702L16.1752 3.10238C16.3001 2.98227 16.4018 2.84853 16.4659 2.70082C16.5289 2.55546 16.5672 2.39687 16.5672 2.23715C16.5672 2.06937 16.5424 1.90936 16.4652 1.76019C16.4028 1.61669 16.3146 1.47094 16.1995 1.36025L16.1995 1.3602L16.1975 1.35848C16.0737 1.25135 15.9353 1.15416 15.7824 1.09295C15.6291 1.03152 15.4522 1.00762 15.29 1.00762C15.1246 1.00762 14.9607 1.04429 14.7988 1.10415L14.7988 1.10413L14.7975 1.10463C14.6447 1.16583 14.5057 1.26322 14.3926 1.37193L14.4273 1.40797L14.3926 1.37193L7.51542 7.98199C7.40074 8.09222 7.3121 8.22639 7.24903 8.37186L7.24902 8.37185L7.24849 8.37317C7.18608 8.52913 7.1477 8.68736 7.1477 8.84721C7.1477 9.00693 7.18602 9.16552 7.24903 9.31088C7.3121 9.45635 7.40074 9.59053 7.51542 9.70076L14.3926 16.3108L14.3926 16.3108L14.3936 16.3117C14.6347 16.5313 14.9509 16.6401 15.2778 16.6401C15.6071 16.6401 15.9231 16.5064 16.1509 16.2875C16.3908 16.0568 16.5183 15.7641 16.5186 15.4466C16.531 15.1284 16.4035 14.8237 16.1761 14.593Z" fill="#181725" stroke="#181725" stroke-width="0.1"/>
<path d="M1.14672 3.05471L1.14764 3.05562L6.02002 7.7504L6.02025 7.75062L7.12451 8.80069L1.14768 14.5453C1.02273 14.6654 0.921024 14.7992 0.856994 14.9469C0.793976 15.0922 0.755664 15.2508 0.755664 15.4106C0.755664 15.5783 0.7805 15.7383 0.857694 15.8875C0.920088 16.031 1.00821 16.1768 1.12338 16.2875L1.12333 16.2875L1.12532 16.2892C1.24917 16.3964 1.38758 16.4935 1.54041 16.5548C1.6938 16.6162 1.87064 16.6401 2.03287 16.6401C2.19824 16.6401 2.36217 16.6034 2.52408 16.5436L2.52409 16.5436L2.52533 16.5431C2.67816 16.4819 2.81711 16.3845 2.93021 16.2758L2.89556 16.2397L2.93021 16.2758L9.80743 9.66572C9.92212 9.55549 10.0108 9.42132 10.0738 9.27585L10.0738 9.27585L10.0744 9.27453C10.1368 9.11858 10.1751 8.96034 10.1751 8.80049C10.1751 8.64077 10.1368 8.48219 10.0738 8.33682C10.0108 8.19135 9.92212 8.05718 9.80743 7.94695L2.93021 1.33689L2.93022 1.33688L2.92923 1.33597C2.68813 1.11643 2.37192 1.00761 2.04502 1.00761C1.7158 1.00761 1.39973 1.14135 1.17199 1.36024C0.932032 1.59088 0.804533 1.88362 0.804267 2.20112C0.791826 2.51935 0.919369 2.82405 1.14672 3.05471Z" fill="#181725" stroke="#181725" stroke-width="0.1"/>
</svg>
