<svg width="49" height="57" viewBox="0 0 49 57" fill="none" xmlns="http://www.w3.org/2000/svg">
<path fill-rule="evenodd" clip-rule="evenodd" d="M32.7213 4.7429C32.9601 2.60925 31.4474 0.682598 29.3138 0.443757C27.1802 0.188993 25.2535 1.71758 25.0147 3.85122C24.7281 6.2874 25.1261 9.20126 25.6356 12.1947C27.0528 12.6247 28.4221 13.2456 29.6959 13.9781C31.0653 10.7458 32.4028 7.5453 32.7213 4.7429ZM47.7046 14.1055C46.8607 12.131 44.5678 11.2394 42.5934 12.0833C39.998 13.2138 37.307 15.4271 34.6002 17.704C35.6192 18.7071 36.5746 19.8377 37.3866 21.0637C40.4597 20.6816 43.4054 20.2198 45.6824 19.2326C47.6568 18.3568 48.5644 16.064 47.7046 14.1055ZM41.1603 3.692C39.4407 2.41818 37.0045 2.76848 35.7307 4.48813C33.7881 7.09946 32.4824 11.0005 31.0653 14.8061C31.543 15.1245 31.9888 15.443 32.4187 15.7774C32.7372 16.0321 33.0716 16.3028 33.4059 16.5735C36.6542 14.1214 40.0298 11.733 41.9724 9.12165C43.2462 7.40199 42.88 4.96581 41.1603 3.692Z" fill="#53B175"/>
<path d="M33.7723 34.8688C32.5781 36.1585 31.3043 37.3527 29.9508 38.5151C28.056 40.1551 26.1294 41.7474 24.1709 43.276C22.0691 41.9862 20.5564 41.3334 20.3016 41.6678C20.0787 41.9703 20.9545 43.0849 22.5308 44.5339C17.2445 48.4668 11.6556 51.9379 5.65272 54.7881C4.71328 55.2339 3.72607 55.5524 2.75478 55.9027C2.50002 55.9982 2.22933 55.9982 2.11787 56.0141C0.58929 56.1893 0.127531 55.7753 0.191222 54.3741C0.382295 50.0113 1.73573 45.9191 3.13693 41.8429C3.51907 40.7283 3.91714 39.6137 4.33113 38.4991C6.44886 39.7889 7.96152 40.4576 8.21628 40.1233C8.48697 39.757 7.21315 38.2921 5.0795 36.461C6.60809 32.5122 8.31182 28.627 10.3181 24.9011C14.3306 27.8787 17.8973 29.8372 18.2954 29.2958C18.6934 28.7544 15.7477 25.8724 11.6874 22.863L11.5123 22.7356C12.2129 21.5414 12.9453 20.3472 13.7255 19.1849C14.6968 17.72 15.891 16.3825 17.0693 15.0768C18.6457 13.3412 20.6838 12.7521 22.9607 13.2616C30.2534 14.8857 35.3168 19.0734 37.7052 26.2545C38.1829 27.7194 37.753 29.1525 37.0046 30.4741C36.4951 31.3657 35.9378 32.2097 35.3168 33.0058C31.4635 30.1875 28.1197 28.3723 27.7376 28.8818C27.3713 29.3913 30.0304 32.0186 33.7723 34.8688Z" fill="#F3603F"/>
</svg>
