<svg width="21" height="16" viewBox="0 0 21 16" fill="none" xmlns="http://www.w3.org/2000/svg">
<path d="M19.1267 4.65719L19.1264 4.65754L9.20416 14.6338C8.83376 14.9859 8.34696 15.1908 7.85389 15.1908C7.35731 15.1908 6.87344 14.9835 6.52887 14.6378L1.55495 9.64747C1.21772 9.30913 1.02446 8.82626 1.02446 8.316C1.02446 7.8259 1.22468 7.35879 1.57638 6.98467C1.93932 6.64151 2.40359 6.45077 2.90906 6.43151C3.40533 6.43344 3.8666 6.62131 4.2304 6.96719L7.53517 10.2828L7.85389 10.6026L8.17261 10.2828L16.4513 1.97691C16.8151 1.63103 17.2764 1.44316 17.7726 1.44123C18.2806 1.46059 18.7438 1.65289 19.1054 2.01566C19.4532 2.36463 19.6572 2.83053 19.6572 3.32572C19.6572 3.83598 19.464 4.31885 19.1267 4.65719Z" fill="#53B175" stroke="#FCFCFC" stroke-width="0.9"/>
</svg>
