<svg width="18" height="18" viewBox="0 0 18 18" fill="none" xmlns="http://www.w3.org/2000/svg">
<path d="M17.734 9.47528C17.734 9.85111 17.5899 10.2144 17.3204 10.4775C17.0573 10.7468 16.6938 10.8972 16.3179 10.8972H10.6533V16.5597C10.6533 16.9355 10.5029 17.2988 10.2335 17.5619C9.97028 17.8249 9.61311 17.9753 9.23714 17.9753C8.86117 17.9753 8.49774 17.8249 8.23456 17.5619C7.96512 17.2988 7.81473 16.9355 7.81473 16.5597V10.8972H2.15015C1.77419 10.8972 1.41075 10.7468 1.14757 10.4775C0.884396 10.2144 0.734009 9.85111 0.734009 9.47528C0.734009 9.09945 0.884396 8.74241 1.14757 8.47307C1.41075 8.20999 1.77419 8.05966 2.15015 8.05966H7.81473V2.39717C7.81473 2.02134 7.96512 1.65804 8.23456 1.39496C8.49774 1.12561 8.86117 0.975281 9.23714 0.975281C9.61311 0.975281 9.97028 1.12561 10.2335 1.39496C10.5029 1.65804 10.6533 2.02134 10.6533 2.39717V8.05966H16.3179C16.6938 8.05966 17.0573 8.20999 17.3204 8.47307C17.5899 8.74241 17.734 9.09945 17.734 9.47528Z" fill="#53B175"/>
</svg>
