<svg width="15" height="11" viewBox="0 0 15 11" fill="none" xmlns="http://www.w3.org/2000/svg">
<path fill-rule="evenodd" clip-rule="evenodd" d="M14.0625 1.75121C14.0625 2.10093 13.9249 2.42944 13.6885 2.65794L6.17156 9.93971C5.90753 10.1811 5.56231 10.32 5.21553 10.32C4.86539 10.32 4.52304 10.1788 4.27952 9.94343L0.511012 6.30068C0.27462 6.07218 0.137054 5.74367 0.137054 5.39395C0.137054 5.06304 0.276879 4.74487 0.527263 4.48737C0.784064 4.25434 1.11197 4.12432 1.4707 4.1107C1.82057 4.1125 2.14558 4.23988 2.40321 4.47546L5.21553 7.19393L11.7964 0.832714C12.054 0.597134 12.379 0.469752 12.7289 0.467957C13.09 0.481662 13.4169 0.613147 13.6724 0.86011C13.919 1.09855 14.0625 1.41558 14.0625 1.75121Z" fill="#FCFCFC"/>
</svg>
